<svg width="20" height="20" viewBox="0 0 20 20" fill="none" xmlns="http://www.w3.org/2000/svg">
<g id="draw-right">
<path id="Vector" fill-rule="evenodd" clip-rule="evenodd" d="M3.00009 3C3.26531 3 3.51966 3.10536 3.7072 3.29289C3.89474 3.48043 4.00009 3.73478 4.00009 4V16C4.00009 16.2652 3.89474 16.5196 3.7072 16.7071C3.51966 16.8946 3.26531 17 3.00009 17C2.73487 17 2.48052 16.8946 2.29298 16.7071C2.10545 16.5196 2.00009 16.2652 2.00009 16V4C2.00009 3.73478 2.10545 3.48043 2.29298 3.29289C2.48052 3.10536 2.73487 3 3.00009 3ZM13.2931 6.293C13.4806 6.10553 13.7349 6.00021 14.0001 6.00021C14.2653 6.00021 14.5196 6.10553 14.7071 6.293L17.7071 9.293C17.8946 9.48053 17.9999 9.73484 17.9999 10C17.9999 10.2652 17.8946 10.5195 17.7071 10.707L14.7071 13.707C14.5185 13.8892 14.2659 13.99 14.0037 13.9877C13.7415 13.9854 13.4907 13.8802 13.3053 13.6948C13.1199 13.5094 13.0147 13.2586 13.0124 12.9964C13.0101 12.7342 13.1109 12.4816 13.2931 12.293L14.5861 11H7.00009C6.73487 11 6.48052 10.8946 6.29298 10.7071C6.10545 10.5196 6.00009 10.2652 6.00009 10C6.00009 9.73478 6.10545 9.48043 6.29298 9.29289C6.48052 9.10536 6.73487 9 7.00009 9H14.5861L13.2931 7.707C13.1056 7.51947 13.0003 7.26516 13.0003 7C13.0003 6.73484 13.1056 6.48053 13.2931 6.293Z" fill="#F7F7F7"/>
</g>
</svg>
