<svg width="20" height="19" viewBox="0 0 20 19" fill="none" xmlns="http://www.w3.org/2000/svg">
<g id="Group">
<path id="Vector" d="M18.3333 8.66677V9.5001C18.3249 11.182 17.8077 12.8221 16.8498 14.2046C15.8918 15.5871 14.5379 16.6473 12.9661 17.246C11.3943 17.8446 9.67813 17.9536 8.0432 17.5587C6.40828 17.1637 4.93114 16.2832 3.80597 15.033C2.6808 13.7829 1.96027 12.2215 1.73911 10.5541C1.51795 8.88675 1.8065 7.1915 2.56684 5.69121C3.32718 4.19093 4.5237 2.95583 5.99912 2.1483C7.47454 1.34076 9.15979 0.998593 10.8333 1.16677" stroke="#9B9B9D" stroke-width="2" stroke-linecap="round" stroke-linejoin="round"/>
<path id="Vector_2" d="M6.66663 11.167C6.66663 11.167 7.91663 12.8337 9.99996 12.8337C12.0833 12.8337 13.3333 11.167 13.3333 11.167M7.49996 7.00033H7.50829M12.5 7.00033H12.5083M13.3333 3.66699H18.3333M15.8333 1.16699V6.16699" stroke="#9B9B9D" stroke-width="2" stroke-linecap="round" stroke-linejoin="round"/>
</g>
</svg>
