<svg width="69" height="69" viewBox="0 0 69 69" fill="none" xmlns="http://www.w3.org/2000/svg">
<path d="M25.7981 5.0079C26.9941 4.4499 28.1901 5.3849 28.8481 6.3309C29.5761 7.3779 29.8741 8.6459 30.1761 9.8669C30.5071 11.2059 30.8251 12.6649 31.4211 13.9169C31.5831 14.2569 31.5481 14.3769 31.5561 14.7169C31.5671 15.1989 32.0261 15.4949 32.4751 15.4329C32.9321 15.4069 33.3751 15.3199 33.7811 15.2279C35.5691 14.8229 37.3641 14.4539 39.1451 14.0159C40.1643 13.7589 41.1878 13.5192 42.2151 13.2969C43.2181 13.0859 44.2271 13.0179 45.3051 12.9479C48.5711 12.7379 51.7991 12.1319 54.9871 11.4039C55.4411 11.2999 55.9411 11.4769 56.3921 11.5569C57.8021 11.8069 58.9321 12.5399 59.7131 13.7599C60.5331 15.0409 60.4911 15.6909 61.0531 17.3759C61.9281 20.0019 62.1351 22.7789 62.7671 25.4639C63.4951 28.5589 64.1201 31.8289 65.3231 34.7679C66.2351 36.9989 66.8171 39.4049 67.2531 41.8059C67.5021 43.1739 67.5621 44.2889 67.2591 45.6529C67.1921 45.9559 66.8761 46.4139 66.3391 46.9419C65.8606 47.4019 65.3456 47.8222 64.7991 48.1989C63.6761 48.9759 62.4971 50.0779 61.8801 51.3119C61.83 51.3993 61.7984 51.496 61.787 51.5961C61.7756 51.6962 61.7848 51.7976 61.814 51.894C61.8432 51.9904 61.8917 52.0798 61.9567 52.1568C62.0216 52.2338 62.1016 52.2967 62.1917 52.3417C62.2818 52.3867 62.3802 52.4128 62.4808 52.4185C62.5813 52.4241 62.682 52.4092 62.7766 52.3746C62.8712 52.3399 62.9577 52.2864 63.0309 52.2171C63.1041 52.1479 63.1623 52.0644 63.2021 51.9719C63.3881 51.6019 63.7801 51.1059 64.2661 50.6069C65.2181 49.6309 66.4031 48.9499 67.3751 47.9969C67.9291 47.4519 68.5341 46.7329 68.7021 45.9739C69.0471 44.4219 68.9911 43.0969 68.7081 41.5409C68.2631 39.0919 67.6581 36.5739 66.6911 34.2079C66.0831 32.7229 65.6511 31.1479 65.3311 29.5479C65.1561 28.6679 64.9181 27.8049 64.6811 26.9409C64.5116 26.3385 64.3532 25.7331 64.2061 25.1249C63.8741 23.7139 63.6801 22.4129 63.4451 21.0629C63.1321 19.2699 62.6121 17.5629 62.1321 15.8149C61.8821 14.9009 61.6441 14.0349 60.9581 12.9629C60.3101 11.9499 59.2261 10.8619 58.1381 10.3329C57.3421 9.9469 55.4911 9.7719 54.6581 9.9629C51.9591 10.5789 50.1061 10.9189 47.3641 11.2849C45.5501 11.5269 43.7071 11.4719 41.9101 11.8499C40.8611 12.0699 39.8181 12.3279 38.7901 12.5799C37.4401 12.9129 36.1181 13.2379 34.7941 13.4829C34.1971 13.5929 33.6141 13.7679 33.0161 13.8769C32.8671 13.4749 32.6451 13.1049 32.5011 12.7009C32.1451 11.7049 31.8871 10.6259 31.6341 9.6009C31.3131 8.3009 30.9601 6.7779 30.0621 5.4869C29.5651 4.7729 28.8701 4.0969 28.0381 3.7049C27.1881 3.3029 26.1841 3.1959 25.1731 3.6679C24.4741 3.9939 23.7741 4.3229 23.1371 4.7619C22.6151 5.1199 22.3041 5.6729 22.0971 6.1359C21.9101 6.5529 21.7771 6.9899 21.6061 7.4129C21.5633 7.50395 21.5396 7.60277 21.5363 7.70331C21.533 7.80385 21.5502 7.904 21.587 7.99766C21.6237 8.09131 21.6791 8.17649 21.7499 8.248C21.8206 8.3195 21.9052 8.37583 21.9985 8.41354C22.0917 8.45126 22.1917 8.46956 22.2923 8.46733C22.3928 8.4651 22.4919 8.4424 22.5834 8.40059C22.6749 8.35879 22.7569 8.29877 22.8244 8.22421C22.8919 8.14964 22.9436 8.06209 22.9761 7.9669C23.2401 7.3169 23.3681 6.3969 23.9751 5.9799C24.5231 5.6029 25.1181 5.3249 25.7831 5.0149L25.7981 5.0079Z" fill="#00FAFA"/>
<path d="M27.7261 6.43015L31.5061 16.0401C38.5441 14.9371 53.0261 12.6371 54.6641 12.2591C56.7121 11.7861 58.7601 12.5741 59.3911 14.7791C60.0211 16.9851 65.2191 38.0941 65.8491 39.9841C66.4791 41.8741 66.7951 43.1351 66.6371 44.2381C66.4801 45.3411 62.3841 50.2241 60.6511 51.0121C58.9181 51.8001 52.3011 54.0051 44.2671 55.8951C36.2331 57.7851 18.2741 62.3551 15.9111 62.9851C13.5481 63.6151 11.1851 63.4571 10.2401 61.8821C9.29511 60.3061 8.03411 56.8411 4.88411 44.7111C1.73311 32.5801 1.10311 29.9021 1.41811 28.8001C1.73311 27.6971 4.41111 21.5531 5.82811 21.0801C6.96311 20.7021 20.0591 18.1921 26.4661 16.9851L23.6301 9.42215C23.6831 8.73915 24.0711 7.18515 25.2061 6.42915C26.3401 5.67315 27.3581 6.11515 27.7261 6.43015Z" fill="white"/>
<path fill-rule="evenodd" clip-rule="evenodd" d="M23.9019 8.42311C23.0249 9.05111 23.0159 9.35411 23.8309 10.9531C24.2179 11.7141 24.9809 13.2931 25.5249 14.4631L26.6229 17.0781H28.8589C28.7749 16.5071 25.8179 9.12811 25.4589 8.59311C25.0169 7.93711 24.6389 7.89511 23.9019 8.42311ZM1.89194 27.3031C1.25594 29.7421 1.20294 30.2001 1.40494 31.5191C1.50894 32.1951 1.70194 33.0481 1.83494 33.4131C1.96894 33.7781 2.24994 34.8921 2.45994 35.8881C3.73194 41.9201 4.98894 46.4451 7.40294 53.6901C8.16794 55.9861 8.87694 58.1831 8.97694 58.5731C9.32494 59.9201 10.2169 61.4981 11.0089 62.1661C12.5419 63.4581 13.1229 63.6611 14.0759 63.2351C14.3489 63.1131 14.9969 62.9771 15.5169 62.9321C25.2259 61.0941 46.0659 55.5801 57.8149 51.9441C59.6239 51.5311 60.0669 51.3001 62.4509 49.5271C64.2749 48.1701 66.4799 45.0251 66.4799 45.0251L65.9799 43.2921C65.9799 43.2921 65.3769 44.9961 63.0139 45.6551C62.1909 45.8851 60.7889 46.2651 59.7059 46.5981C58.6219 46.9311 57.1689 47.3231 56.4759 47.4681C54.1559 47.9531 42.2999 51.1621 41.0019 51.6551C40.5749 51.8181 39.0099 52.2621 35.2089 53.2981C34.1689 53.5811 31.1919 54.4291 28.5929 55.1831C25.9929 55.9361 22.9799 56.7501 21.8969 56.9911C20.8139 57.2321 19.4089 57.5851 18.7739 57.7751C16.4809 58.4631 15.0839 58.4851 13.8439 57.8521C13.2179 57.5321 11.9959 54.4571 10.8709 50.3681C10.4666 48.8959 10.0543 47.4259 9.63394 45.9581C8.36994 41.6001 7.24394 37.3121 6.44894 33.8401C5.94161 31.7017 5.37237 29.5785 4.74194 27.4731C4.51294 26.7341 4.23794 24.8611 4.88394 22.0251C4.88394 22.0251 2.12994 26.3891 1.89194 27.3031ZM43.0759 23.7481C42.2629 23.9431 40.9339 24.7501 40.5019 25.3111C40.2769 25.6041 39.8319 26.1521 39.5139 26.5291C38.7699 27.4111 38.5039 28.5501 38.7439 29.8391C38.9589 31.0071 39.4819 31.8791 40.5599 32.8631C42.2839 34.4391 44.1979 34.7151 46.1569 33.6701C46.6969 33.3821 47.3269 32.9051 47.5549 32.6101C47.7829 32.3151 48.2599 31.7261 48.6149 31.3011C48.9689 30.8771 49.3409 30.2561 49.4409 29.9221C49.6959 29.0721 49.6679 27.7471 49.3749 26.7611C48.7239 24.5661 45.7009 23.1211 43.0759 23.7481ZM46.0659 25.7701C47.1089 26.3491 47.4259 26.8221 47.5279 27.9561C47.6689 29.5101 46.9379 30.5881 45.4619 31.0011C44.4949 31.2711 43.7409 31.0981 43.0069 30.4341C41.8309 29.3721 41.3709 27.6141 41.9679 26.4641C42.5579 25.3251 44.6309 24.9741 46.0659 25.7701ZM23.7879 26.2791C23.6579 26.3631 23.2849 26.4331 22.9589 26.4341C22.1969 26.4371 19.8049 26.9701 18.7059 27.3811C17.5559 27.8111 17.0999 28.3171 17.0999 29.1611C17.0999 29.6691 17.0099 29.8991 16.7069 30.1591C16.3649 30.4531 16.3189 30.6091 16.3509 31.3741C16.3709 31.8561 16.5229 32.6841 16.6879 33.2141C16.9019 33.9031 16.9349 34.1911 16.8039 34.2291C14.7499 34.8301 14.7459 34.8331 14.3269 35.6521C14.1069 36.0851 13.7049 36.6581 13.4369 36.9251C12.7189 37.6371 12.5909 38.2891 12.8609 39.8551C13.1539 41.5471 13.6709 43.2971 13.9819 43.6471C14.1759 43.8651 14.4779 43.9221 15.4239 43.9171C16.5649 43.9131 18.6939 43.6951 19.2139 43.5301C19.4129 43.4671 19.5279 43.7781 19.8139 45.1431C20.3079 47.5081 20.6689 48.1801 21.6339 48.5321C22.3689 48.8001 22.4359 48.7991 23.7599 48.4851C25.7799 48.0071 27.5679 47.3891 27.9029 47.0541C28.0829 46.8731 28.2009 46.5291 28.2049 46.1671C28.2099 45.6771 28.2959 45.5231 28.7169 45.2601C29.0549 45.0471 29.2919 44.7241 29.4329 44.2821C29.6189 43.6951 29.6049 43.4751 29.3149 42.3271C29.1349 41.6151 29.0049 41.0221 29.0269 41.0071C29.0469 40.9941 29.4519 40.8471 29.9249 40.6801C30.5469 40.4621 30.8869 40.2281 31.1499 39.8371C31.3499 39.5401 31.7249 39.1941 31.9819 39.0691C32.7059 38.7191 32.8779 37.8741 32.5539 36.2671C32.3009 35.0091 31.3939 32.0671 31.1359 31.6641C30.8459 31.2111 30.2609 31.1571 29.0179 31.4681C28.45 31.612 27.8796 31.746 27.3069 31.8701C26.7489 31.9801 26.8679 32.2361 25.9879 29.0361C25.5729 27.5241 25.1749 26.7011 24.6999 26.3681C24.2939 26.0831 24.1169 26.0671 23.7879 26.2791ZM24.1579 30.9261C24.4679 32.1391 24.7429 33.3371 24.7679 33.5891C24.7939 33.8631 24.9769 34.1691 25.2259 34.3531L25.6399 34.6611L27.7099 34.1481C28.8469 33.8661 29.7999 33.6631 29.8259 33.6981C29.9279 33.8321 30.8999 37.0191 30.8509 37.0541C30.8209 37.0751 30.4789 37.1811 30.0889 37.2901C27.1259 38.1201 26.7519 38.2821 26.5239 38.8271C26.3259 39.3011 26.3439 39.5311 26.7039 41.1271C26.9219 42.1011 27.1389 43.0171 27.1839 43.1631C27.2519 43.3761 27.0179 43.5031 25.9609 43.8251C25.2419 44.0431 24.3579 44.2701 23.9959 44.3271L23.3369 44.4321L23.1769 43.8221C23.0899 43.4881 22.8699 42.6121 22.6879 41.8751C22.2509 40.0991 22.0779 39.6911 21.6349 39.4011C21.2969 39.1801 21.1369 39.1881 19.8089 39.4961C19.0079 39.6821 18.0689 39.9321 17.7229 40.0521L17.0939 40.2701L16.6739 38.6701C16.4439 37.7901 16.2319 36.9681 16.2019 36.8431C16.1599 36.6701 16.6089 36.5201 18.0749 36.2131C20.6379 35.6771 20.7429 35.5761 20.4969 33.8911C20.3969 33.2101 20.1169 31.8931 19.8739 30.9641L19.4319 29.2761L19.9949 29.1831C20.6566 29.0661 21.3169 28.9421 21.9759 28.8111C22.7559 28.6581 23.4379 28.5751 23.4929 28.6271C23.5469 28.6781 23.8459 29.7131 24.1569 30.9261H24.1579ZM52.4849 30.2161C51.2349 30.5121 49.4189 32.1061 49.0729 33.2121C49.0049 33.4281 48.7829 33.8041 48.5779 34.0491C48.0879 34.6361 47.9899 35.0791 48.0879 36.2971C48.2429 38.2261 49.5749 40.1801 51.1309 40.7621C52.2269 41.1721 53.0929 41.1721 54.4209 40.7621C55.1909 40.5251 55.6139 40.2831 56.0079 39.8571C56.3039 39.5371 56.8999 38.8961 57.3329 38.4321C58.3019 37.3941 58.7599 36.2551 58.7599 34.8861C58.7599 33.5561 58.3999 32.5811 57.5599 31.6481C56.5539 30.5281 55.5199 30.0551 54.1219 30.0761C53.5099 30.0851 52.7739 30.1481 52.4849 30.2161ZM55.0649 32.2461C56.3069 32.8101 56.8289 33.8311 56.6779 35.4011C56.5509 36.7241 55.5179 37.6401 54.0339 37.7411C52.7919 37.8251 51.8929 37.3361 51.3839 36.3011C50.8249 35.1651 50.7779 34.4741 51.1979 33.6051C51.8819 32.1921 53.6099 31.5851 55.0649 32.2461Z" fill="black"/>
<path fill-rule="evenodd" clip-rule="evenodd" d="M24.9699 5.51184C23.1559 6.38584 22.1149 8.59384 22.7269 10.2648C22.8539 10.6118 23.1879 11.5338 23.4689 12.3128C23.7499 13.0928 24.2249 14.3228 24.5239 15.0468C24.8239 15.7698 25.0219 16.4078 24.9659 16.4638C24.8589 16.5718 22.5829 16.9938 16.3159 18.0668C14.2439 18.4218 11.4789 18.9508 10.1729 19.2418C8.86694 19.5328 7.37294 19.8478 6.85294 19.9418C5.48994 20.1898 4.31894 20.8108 3.75994 21.5818C3.50094 21.9398 2.61994 23.5658 1.80194 25.1948C0.710941 27.3698 0.314941 28.3168 0.314941 28.7528C0.314941 31.1308 1.78094 38.1908 3.36294 43.4258C3.82294 44.9528 5.16094 49.9928 5.84894 52.7998C6.47294 55.3448 8.10494 60.1668 8.68894 61.1898C9.38594 62.4118 10.3319 63.5488 10.8919 63.8388C11.1639 63.9788 12.0669 64.2318 12.8999 64.3998L14.4139 64.7058L15.9109 64.3168C16.7339 64.1028 18.8959 63.5348 20.7159 63.0548C23.8919 62.2168 26.4159 61.5588 31.3489 60.2818C32.6049 59.9568 34.3069 59.5068 35.1299 59.2818C35.9529 59.0578 38.5399 58.4018 40.8799 57.8238C43.2199 57.2468 46.0899 56.4388 47.2599 56.0288C49.4999 55.2438 54.7729 53.6128 58.1869 52.6498C59.3009 52.3358 60.5509 51.9068 60.9639 51.6978C61.4029 51.4748 62.5569 50.4908 63.7429 49.3278C64.8579 48.2348 65.9209 47.2358 66.1059 47.1098C66.2909 46.9838 66.6679 46.4558 66.9449 45.9368C67.3499 45.1768 67.4779 44.6938 67.6049 43.4608L67.7609 41.9298L66.2369 36.6518C65.3999 33.7498 64.3019 29.6018 63.7969 27.4368C63.2929 25.2708 62.8069 23.3078 62.7189 23.0768C62.6299 22.8448 62.3799 21.8168 62.1629 20.7918C61.6699 18.4588 60.1389 13.9598 59.5449 13.0968C59.0439 12.3678 58.3069 11.7668 57.5329 11.4548C56.8369 11.1748 54.8609 11.3058 52.1429 11.8148C50.9739 12.0328 48.6349 12.3968 46.9449 12.6228C45.2549 12.8498 42.4549 13.3128 40.7219 13.6528C38.9899 13.9918 36.5149 14.4508 35.2239 14.6728C33.9329 14.8948 32.7139 15.1168 32.5169 15.1658C32.1989 15.2458 32.1309 15.1678 31.9269 14.4938C31.8009 14.0738 31.3279 12.7738 30.8769 11.6038C30.4269 10.4338 29.7769 8.69784 29.4349 7.74384C28.6219 5.48384 28.3869 5.24484 26.8979 5.18084C25.9499 5.14084 25.6229 5.19584 24.9689 5.51084L24.9699 5.51184ZM27.0069 7.53184C27.2779 7.65584 27.5069 7.98584 27.7229 8.55984C27.8969 9.02484 28.2279 9.77584 28.4579 10.2298C28.8299 10.9608 30.1279 14.4598 30.3479 15.3178C30.4229 15.6158 30.3079 15.6708 29.0559 15.9338C28.1889 16.1158 27.5999 16.1698 27.4589 16.0798C27.3359 16.0008 27.0699 15.5468 26.8689 15.0698C26.6669 14.5938 26.2049 13.5298 25.8419 12.7068C25.488 11.9053 25.1366 11.1027 24.7879 10.2988L24.3949 9.38784L24.7429 8.66884C25.0869 7.95784 25.8209 7.35284 26.3399 7.35184C26.4879 7.35184 26.7879 7.43184 27.0069 7.53184ZM57.2699 13.5628C57.6919 13.8398 58.6759 15.6868 59.2099 17.2048C59.3949 17.7288 59.7539 19.1828 60.0079 20.4348C61.1209 25.9238 62.7059 32.2958 64.4339 38.2278C65.9609 43.4728 65.9619 43.2528 64.4039 45.5598C63.0409 47.5808 61.9559 48.8318 60.8249 49.6858C59.9929 50.3148 58.1019 51.1238 56.8699 51.3778C55.8779 51.5828 50.3959 53.1928 47.4179 54.1538C45.8149 54.6708 42.7669 55.5178 40.6439 56.0368C33.2549 57.8408 31.5759 58.2388 30.0099 58.5538C29.1439 58.7278 26.9819 59.2568 25.2049 59.7278C21.6619 60.6688 16.0579 62.0478 14.5709 62.3458C11.7859 62.9028 10.7609 61.8258 9.00894 56.5018C8.56794 55.1588 7.81494 52.5718 7.33694 50.7518C6.85994 48.9318 6.06694 46.0618 5.57494 44.3718C5.08294 42.6818 4.51394 40.6258 4.30994 39.8028C4.10594 38.9798 3.72594 37.5268 3.46494 36.5728C3.11974 35.2672 2.803 33.9542 2.51494 32.6348C1.94994 30.0228 1.98494 29.4078 2.79794 27.6728C3.10294 27.0228 3.68894 25.7248 4.10094 24.7888C4.51294 23.8528 4.97894 22.9438 5.13694 22.7698C5.60494 22.2528 7.54894 21.4248 8.90094 21.1658C9.59394 21.0328 11.1529 20.7698 12.3659 20.5788C13.5789 20.3888 15.8119 20.0258 17.3289 19.7718C18.8449 19.5178 21.3969 19.1008 22.9989 18.8448C29.3279 17.8368 30.0279 17.7128 30.6389 17.4948C31.6969 17.1138 41.4609 15.3948 47.9689 14.4428C50.3949 14.0878 53.1239 13.6608 54.0339 13.4938C55.8539 13.1598 56.6809 13.1778 57.2699 13.5638V13.5628Z" fill="#323239"/>
</svg>
