<svg width="20" height="20" viewBox="0 0 20 20" fill="none" xmlns="http://www.w3.org/2000/svg">
<g id="heroicons-outline:heart">
<path id="Vector" d="M3.59837 5.26536C3.25014 5.61358 2.97391 6.02698 2.78546 6.48195C2.597 6.93693 2.5 7.42456 2.5 7.91702C2.5 8.40949 2.597 8.89712 2.78546 9.3521C2.97391 9.80707 3.25014 10.2205 3.59837 10.5687L10 16.9704L16.4017 10.5687C17.105 9.86543 17.5001 8.91159 17.5001 7.91702C17.5001 6.92246 17.105 5.96862 16.4017 5.26536C15.6984 4.56209 14.7446 4.167 13.75 4.167C12.7555 4.167 11.8016 4.56209 11.0984 5.26536L10 6.36369L8.9017 5.26536C8.55348 4.91713 8.14008 4.64091 7.68511 4.45245C7.23013 4.26399 6.74249 4.16699 6.25003 4.16699C5.75757 4.16699 5.26993 4.26399 4.81496 4.45245C4.35998 4.64091 3.94659 4.91713 3.59837 5.26536Z" stroke="white" stroke-width="2" stroke-linecap="round" stroke-linejoin="round"/>
</g>
</svg>
